<?xml version="1.0" encoding="utf-8"?>
<!-- Generator: Adobe Illustrator 28.0.0, SVG Export Plug-In . SVG Version: 6.00 Build 0)  -->
<svg version="1.1" id="Layer_1" xmlns="http://www.w3.org/2000/svg" xmlns:xlink="http://www.w3.org/1999/xlink" x="0px" y="0px"
	 viewBox="0 0 400.8 612.3" style="enable-background:new 0 0 400.8 612.3;" xml:space="preserve">
<style type="text/css">
	.st0{display:none;fill:#FEF9EC;}
	.st1{fill:none;stroke:#E6D9CF;stroke-width:0.3;stroke-miterlimit:10;}
	.st2{fill:none;stroke:#2A7251;stroke-width:0.3;stroke-miterlimit:10;}
	.st3{fill:none;stroke:#9CBB94;stroke-width:0.3;stroke-miterlimit:10;}
	.st4{fill:none;stroke:#A7D8DB;stroke-width:0.3;stroke-miterlimit:10;}
	.st5{fill:none;stroke:#F9DB80;stroke-width:0.3;stroke-miterlimit:10;}
	.st6{fill:none;stroke:#E1616D;stroke-width:0.3;stroke-miterlimit:10;}
	.st7{fill:none;stroke:#F9BABD;stroke-width:0.3;stroke-miterlimit:10;}
	.st8{fill:none;stroke:#F99D1F;stroke-width:0.3;stroke-miterlimit:10;}
	.st9{fill:none;stroke:#F99E20;stroke-width:0.3;stroke-miterlimit:10;}
	.st10{fill:none;stroke:#F9BABC;stroke-width:0.3;stroke-miterlimit:10;}
</style>
<rect x="0.2" class="st0" width="400.6" height="612.2"/>
<path class="st1" d="M322.4,270.6c-12.4-1.1-21.2-2.1-29,3.9c-7.1,5.3-7.1,8.8,0.4,13.5c2.8,1.8,6,2.8,8.5,5
	c9.6,7.4,10.6,13.5,4.2,23.7c-1.1,2.1-2.8,3.9-3.9,5.7c-3.9,8.1-1.8,12.4,7.1,13.1c6,0.4,12.4,1.4,17.7-1.4
	c7.4-4.2,14.2-1.1,19.5,2.8c11.7,8.5,15.2,21.9,16.3,35.4c0.7,6.4-5,11-9.9,14.2c-8.8,6-16.3,13.8-23.4,21.6
	c-8.1,9.2-18.1,15.9-30.1,19.5c-5.7,1.8-11.3,4.2-17,6.4c-20.5,7.8-30.8,1.8-35.4-19.5c-1.1-4.2-1.1-8.1-0.4-12.4
	c1.1-5-0.4-8.8-5.7-9.2c-7.1-0.7-10.3-5-14.2-9.9c-4.2-5.3-8.5-4.2-11,2.8c-0.7,2.5-1.1,5.7-1.8,8.1c-3.5,11.3-7.8,21.9-19.5,27.6
	c-3.9,1.8-6.7,5-9.2,8.5c-3.2,4.2-4.6,9.6-5.3,14.2c-1.1,6.4,6.4,5.3,9.9,8.1c5,4.2,10.3,7.8,15.6,11.7c7.1,5.7,8.8,15.2,5,23.7
	c-5.3,11-5,13.1,3.5,21.6c5.7,6,6.7,12.4,3.2,19.8c-1.1,2.5-1.8,5.7-3.5,7.4c-6.7,7.8-7.8,14.9-3.9,25.1
	c5.3,15.2-13.8,33.3-29.4,28.7c-6.4-1.8-12.7-3.2-19.1-2.8c-9.2,0.7-18.4,0.4-27.6-2.5c-8.5-2.8-9.9-1.4-12,6.4
	c-5.3,22.7-8.8,24.8-30.4,16.3c-10.3-3.9-18.1-5.3-28.3,0.7c-11.3,6.7-21.6-0.4-21.6-13.8c0-11,1.8-21.9,7.8-32.2
	c6-10.3,15.9-17,21.2-27.3c1.1-2.1,4.2-3.9,6.7-5c5.7-2.5,11.7-3.9,12.7-11.3c1.1-8.5,2.5-16.6-3.9-24.1
	c-4.6-5.3-8.1-11.3-10.3-18.1c-1.8-5.3-6-10.6-11-12c-12.7-3.9-19.5-15.2-29.4-22.7c-10.6-8.1-10.6-14.2-5-26.5
	c2.1-4.2,3.5-8.5,5-13.1c1.1-3.5,2.5-7.1,6-9.2c6-3.2,9.6-8.5,12.4-14.5c3.9-7.4,8.5-8.5,16.3-5c7.8,3.5,15.6,6,23.7,7.8
	c3.2,0.7,7.1,1.4,8.8,3.5c9.9,11.3,23.7,9.2,36.5,11.3c8.8,1.8,11-1.1,8.5-10.3c-2.8-11.7-7.4-21.6-19.8-28.3
	c-11.7-6-21.6-16.6-29-28c-6-9.2-13.5-17.7-17-28.7c-2.8-8.5-7.8-9.9-16.6-5.3c-12.4,6.4-25.8,6.7-39.3,7.4
	c-7.8,0.4-14.5-3.9-20.5-7.8c-8.8-6-6.7-17.7,5.3-22.7c9.6-4.2,14.9-10.6,18.1-19.8c0.4-0.7,0.7-1.8,1.1-2.5c0.7-1.8,1.4-3.5,2.8-5
	c4.2-6,10.6-10.6,9.6-19.5c-1.8-11.7-5.3-23.4-14.5-30.8c-9.9-8.1-13.1-17-12.7-29c0.4-9.2,0.4-18.8-8.1-25.5
	c-1.4-1.4-2.8-4.2-2.5-6.4c1.4-15.6-2.5-31.1,1.1-46.7c2.1-9.2,7.4-15.2,16.6-16.3c10.3-1.4,18.1-6.4,25.5-13.1
	c7.1-6.4,14.9-11,25.5-8.8c7.1,1.4,12.4-2.8,17.7-6.7c5.7-4.2,11-8.5,17.7-10.6c7.1-2.5,11.7-7.1,15.6-13.1
	c6.4-10.3,12.7-12.4,23.4-7.1c9.9,5,20.9,6.7,30.1,14.2c6.4,5,15.2,3.2,22.7-0.4c6-2.8,11.3-5.7,18.4-4.6c7.1,1.1,11.7-5.3,16.3-9.6
	C251.2-3,255.5-3.4,273.2,9c7.8,5.7,17,9.9,21.9,18.8c0.4,0.7,1.1,1.4,1.8,2.1c6.4,4.6,2.5,14.2,7.8,18.8c5,4.2,10.6,7.4,11.7,14.9
	c0.4,3.9,3.5,6.7,6.4,8.8c11,8.1,21.9,16.6,34.7,20.9c12.7,4.2,19.8,13.1,25.5,24.1c3.5,7.1,5.7,14.9,11.3,20.9
	c3.5,3.9,3.5,8.5,0.7,12.7c-3.5,5.7-3.2,10.6,1.8,14.9c2.1,1.8,5,5,3.5,7.1c-7.4,11,1.1,25.1-7.8,35.4c-0.4,0.4-0.7,0.7-0.7,1.1
	c-0.4,16.3-13.5,23.4-24.1,32.2c-3.5,2.8-6.4,6.7-9.6,10.3C349.3,265.3,336.5,274.1,322.4,270.6L322.4,270.6z"/>
<path class="st2" d="M315.6,263.5c23.4,0.4,27.6-1.4,42.8-17.7c3.5-3.9,6.7-7.8,10.6-11c8.5-7.1,14.2-15.2,19.5-25.8
	c5.7-11.7-2.5-24.1,6.4-34c0.4-0.4-1.4-3.2-2.5-4.6c-5.7-6-6-12.4-2.5-19.5c1.8-3.5,2.8-7.1-0.4-10.3c-5.3-5.7-7.1-13.1-10.3-19.8
	c-3.5-7.4-7.4-15.6-16.3-18.4c-14.9-5-26.9-14.5-40-22.7c-5.7-3.5-8.5-9.2-12-14.5c-7.1-9.6-13.1-19.5-18.1-30.4
	c-5.3-11.3-18.1-18.4-29.7-24.8c-6.4-3.5-12-3.5-17.7,2.5c-4.6,5-10.3,9.6-15.2,14.2c-2.8,2.8-6.4,5-9.9,3.2
	c-6-3.2-10.6-0.4-15.6,2.5c-9.6,5.3-20.5,6.4-29,0c-8.8-6.7-19.5-8.5-28.7-13.8c-6.4-3.5-11.7-2.1-15.2,4.2
	c-3.2,5.7-7.4,11-13.8,13.5c-8.8,3.2-16.3,8.8-23.7,14.5c-5.3,3.9-11,8.1-17.7,6.7c-10.6-2.1-18.1,2.8-25.1,9.2
	c-6.4,5.7-13.5,9.9-21.9,11.7c-13.5,2.8-20.2,14.5-15.9,28c1.8,5.3,2.1,9.6,0,14.9c-2.5,6-3.2,12.7,1.4,17
	c9.9,9.6,9.2,21.9,9.6,33.6c0.4,7.8,2.1,12.7,7.8,18.1c11.7,10.3,17.3,24.1,18.4,39.3c0.4,8.1-21.6,43.2-29,47.4
	c-4.6,2.5-12,3.2-11,10.6c0.7,6.7,8.5,6,13.1,9.2c2.5,1.8,6.4,1.8,9.6,1.4c11.3-1.4,23-1.8,33.6-7.8c8.8-5.3,19.8-1.8,22.7,8.1
	c3.2,10.6,9.6,19.5,15.9,27.6c9.6,12.4,18.8,26.9,36.5,30.1c3.2,0.7,5,2.8,5.3,5.7c1.1,5.3,4.2,9.2,6,14.2c2.8,6.4,4.2,13.5,5,20.2
	c0.4,5.3-1.4,10.3-7.4,9.2c-12.7-2.1-27.3,0-38.2-6.4c-11-6.4-22.7-10.6-34.3-14.2c-3.9-1.1-7.4-4.6-11.7-3.9
	c-5.7,1.1-5.7,6.7-8.5,10.3c-0.7,0.7-1.1,1.8-1.8,2.1c-11.7,5-14.2,16.3-17.7,26.9c-3.5,10.6-3.9,14.2,5,20.5
	c8.5,6,14.5,15.2,25.1,19.1c6.4,2.5,11.3,8.5,14.5,14.9c3.9,8.1,8.1,15.6,13.1,22.7c8.5,13.1,1.8,32.9-12.7,39.3
	c-3.9,1.8-7.1,4.2-9.2,7.8c-2.5,4.6-6,8.1-9.6,11.7c-10.6,11-15.9,23.7-13.8,39.3c1.1,9.2,5,11.3,13.1,7.4c1.8-0.7,3.2-1.8,4.6-2.8
	c5.7-3.9,11.3-3.9,17-1.1c2.8,1.4,6,2.5,9.2,3.5c11.3,3.9,18.1,0.4,20.5-11c2.1-10.3,8.5-15.9,17.3-13.5c11.3,3.2,22.7,5,34.3,3.2
	c3.5-0.4,7.8,0,11,1.4c9.2,4.6,16.3,1.4,22.7-5c6-6,6-13.1,2.1-20.5c-3.5-6.4-1.4-12.7,1.8-18.4c1.4-2.5,3.9-4.2,5-6.7
	c2.1-4.2,4.2-8.5,4.6-13.1c0.4-4.2-4.6-5.3-6.7-8.1c-5.7-7.4-9.2-14.9-2.8-24.1c5.3-7.8,3.5-13.5-3.9-19.1
	c-7.1-5.3-13.1-12-21.9-14.2c-3.9-1.1-6.7-4.6-5.3-8.5c3.9-9.9,6.4-21.2,16.6-26.5c12-6.4,17-16.3,19.5-28.7
	c0.4-2.8,1.1-5.7,2.1-8.1c4.6-10.6,14.2-12,21.9-3.5c3.2,3.5,5.7,6.7,10.6,8.1c11,3.2,12,5,10.6,17c-0.4,4.2,0,8.1,1.4,12.4
	c4.6,15.2,9.9,17.7,24.8,12.4c7.1-2.5,13.8-5.3,20.9-7.4c7.8-2.5,14.5-6.4,20.2-12.4c9.2-9.6,18.1-19.8,29.4-27.6
	c4.2-2.8,7.8-7.1,6.4-13.1c-1.8-7.1-4.2-14.2-8.5-20.5c-3.9-6-9.9-8.8-16.6-7.4c-4.6,0.7-9.2,2.1-13.8,1.8
	c-8.1-0.7-17.7,2.1-22.7-7.1c-4.2-8.5,1.1-14.9,5.3-21.6c4.2-6.7,3.5-10.6-2.8-15.2c-3.2-2.5-7.4-4.2-10.6-6.4
	c-9.2-6.7-9.6-11-1.8-19.1S305.4,262.5,315.6,263.5L315.6,263.5z"/>
<path class="st3" d="M228.6,320.1c8.5-2.1,16.3-4.2,24.4-6.4c12.7-3.2,21.2,4.2,18.8,17c-1.4,6.7-3.2,13.5-7.4,19.5
	c-5.3,7.1-9.6,8.5-18.1,4.6c-1.8-0.7-3.2-1.8-4.6-2.8c-8.5-6.7-17-12.7-27.6-3.5c-2.8,2.5-7.1,1.4-10.6,0
	c-17.3-6.7-34.7-8.1-53.1-3.2c-10.6,2.8-18.8-3.9-25.8-11c-15.2-14.9-25.5-32.9-34.3-52c-3.2-7.1-6.4-14.5-10.6-21.2
	c-4.2-6.7-6.4-14.9-6-22.7c1.1-15.2-4.6-29-7.4-43.5c-3.2-16.6-11-29.4-21.9-41.8c-8.8-9.9-14.2-21.9-9.6-36.1
	c1.4-4.2-1.1-8.1-1.4-12.4c-0.7-8.1,2.1-11.7,9.6-14.5c3.2-1.1,6.4-1.8,8.8-3.5c6-3.5,12-3.5,17.3,0c14.5,9.6,26.5,3.9,37.9-6
	c7.1-6.4,14.5-11.7,22.3-16.6c14.2-8.8,27.6-7.1,38.9,6c2.5,2.8,5,3.9,8.5,3.2c14.5-3.5,29.7-5,43.2-11c10.6-5,20.9-9.6,31.9-13.1
	c6.4-2.1,10.6-1.8,13.5,5c4.2,9.6,11.3,15.2,21.6,18.1c16.6,4.6,27.3,17.3,39.3,28c7.8,7.1,15.2,13.1,26.5,13.5
	c7.8,0,13.1,4.6,15.2,12c3.2,11.7,6.4,23.4,1.4,35.4c-2.5,5.7-3.2,11.7-2.8,17.7c0.7,20.9-7.1,37.9-21.6,52.4
	c-6,6-13.1,10.6-22.3,9.6c-8.5-1.1-15.6,1.4-21.2,7.8c-5,5.7-11.3,9.2-18.8,11.3c-4.6,1.4-8.8,2.8-12.4,6c-3.9,3.5-8.5,5.3-14.2,5
	c-4.2-0.4-8.8,0.7-11.3,3.9C233.5,287.6,222.2,300.3,228.6,320.1L228.6,320.1z"/>
<path class="st4" d="M363.8,148.1c-0.4-1.1-0.7-2.8-0.7-5c-2.5-19.8-2.5-19.5-21.2-24.8c-7.4-2.1-13.1-5.7-18.8-11.3
	c-11-11-21.6-23.7-37.2-28.7c-11.7-3.9-20.5-10.3-27.3-19.8c-1.4-2.1-2.5-4.2-5.3-3.5c-8.1,3.2-17.7,1.4-24.4,8.8
	c-2.1,2.5-5.3,3.9-8.5,4.6c-14.2,3.2-28,6.4-42.1,9.9c-7.1,1.8-12.4,0.4-17-5.7c-7.4-9.6-19.1-11-29.4-4.2
	c-8.1,5.3-15.9,11-23.4,17.3c-11.7,9.9-25.1,17-40.4,6.7c-9.9-6.7-16.6,1.8-24.4,5c-7.4,3.2-3.2,9.2-3.2,14.5c0,3.5-0.4,7.4-1.1,11
	c-1.1,5.3,0,10.3,2.5,14.9c3.5,6.7,6.7,13.5,12.4,18.4c9.9,8.5,17,18.1,15.9,32.2c-0.4,2.1,1.1,4.6,2.1,6.4c3.5,6.7,5.7,13.8,6,21.2
	c1.1,22.3,6.4,43.5,17.3,63.4c8.8,15.9,17,31.9,29,45.7c8.5,9.6,17.7,16.3,31.9,10.3c3.5-1.8,8.1-1.1,12.4-1.4
	c11-1.1,20.9,3.9,31.5,6c15.6,3.2,19.1,0,18.8-15.6c-0.4-17,2.8-33.3,12.7-47.4c3.9-5.7,8.5-11.3,14.9-11.7
	c13.1-1.1,22.7-9.9,34.7-13.1c5.7-1.4,10.6-4.2,13.8-8.8c6.7-8.5,15.6-11.3,25.8-11c6.4,0.4,12.4-1.1,16.6-5.7
	c7.4-8.1,15.6-16.3,17.7-27.6c3.2-16.3,1.8-33.3,8.5-49.2C364.1,149.9,363.8,149.2,363.8,148.1L363.8,148.1z"/>
<path class="st5" d="M256.5,319.8c-4.2,1.1-8.1,2.1-12,3.2c-4.6,1.1-9.2,2.1-10.3,7.4c-1.1,5.7,1.4,9.9,6,12.7
	c3.2,2.1,6,4.2,9.6,5.7c5.3,2.1,9.6-1.1,12.7-9.2c3.9-9.9,3.2-16.6-1.8-18.8C259.4,320.1,257.9,320.1,256.5,319.8z"/>
<path class="st6" d="M161.3,569.3c-6.4,0.4-13.8-1.4-21.6-3.2c-14.2-3.2-28.3-3.5-39.6,8.1c-3.9,3.9-8.1,4.2-12,0.4
	c-4.2-4.2-2.8-8.5,1.4-12c2.5-2.1,5-4.2,8.1-5.3c8.8-2.8,12-9.2,13.1-17.7c1.4-11,6.4-21.2,7.1-32.6c0.4-5.3-0.4-8.8-4.2-12.4
	c-14.9-13.8-23.4-32.2-36.1-47.8c-2.5-3.2-3.9-7.4-5.3-11.3c-1.4-3.5-0.7-7.1,1.4-10.6c6.7-9.9,19.5-13.1,30.4-7.1
	c3.2,1.8,6.7,3.2,9.6,5.7c5.7,4.6,10.3,6,17.3,1.4c8.1-5.3,15.9-2.5,20.9,6c2.1,3.5,2.8,7.8,3.5,12c1.8,15.9,9.6,28.7,21.2,39.3
	c4.6,4.2,8.8,8.8,8.1,15.2c-1.4,17.3,3.2,34,2.8,51.3c-0.4,15.6-3.2,19.8-18.8,20.5C166.6,569.7,164.5,569.3,161.3,569.3
	L161.3,569.3z"/>
<path class="st7" d="M112.1,558.7c4.6,1.1,9.2,0.4,13.5-0.4c5.7-0.7,11.3-1.1,16.3,1.8c7.8,3.9,16.3,3.5,24.4,3.2
	c11.7-0.4,12.7-2.1,13.8-14.2c1.1-14.9-2.5-29.4-2.8-44.2c0-8.5-1.8-15.6-9.6-20.2c-3.2-2.1-5-5.3-7.1-8.5
	c-7.1-11-12.4-22.7-14.5-35.7c-1.8-9.9-6.4-12.4-14.5-8.1c-8.5,4.6-14.9,2.8-21.6-2.5c-2.8-2.5-6.4-3.9-9.6-5.7
	c-8.1-4.2-13.5-3.5-19.8,2.5c-6.4,6-2.1,11.7,1.1,16.3c12.4,15.9,20.9,35,36.8,48.5c4.6,3.9,6,8.8,5,14.9
	C121.7,524,116.4,541,112.1,558.7L112.1,558.7z"/>
<path class="st8" d="M264,404.7c1.8-16.6,12-29,30.1-34c6.7-1.8,13.1-3.5,19.1-7.4c6-3.5,12.4-3.5,18.1,1.1
	c5.7,4.6,3.9,10.6,2.1,16.6c-3.9,14.5-15.2,21.9-26.9,28.3c-7.1,3.9-15.2,6.4-23,9.9C273.2,423.9,262.9,416.4,264,404.7L264,404.7z"
	/>
<path class="st5" d="M278.5,413.9c0.7-0.4,2.5-0.4,3.5-1.1c7.4-4.6,16.3-6.4,24.1-10.6c9.6-5,18.4-11,21.2-22.7
	c0.7-3.5,3.2-7.1-0.7-10.3c-3.2-2.5-7.1-2.1-10.3,0c-6.4,4.2-13.5,5.7-20.5,7.8c-13.8,3.5-21.9,13.1-24.4,27.3
	C270,410.1,273.2,413.6,278.5,413.9L278.5,413.9z"/>
<path class="st7" d="M95.8,239.4c1.4-24.8-4.2-47.8-15.2-69.7c-7.1-14.5-4.6-25.8,7.1-37.5c2.1-1.8,4.6-3.9,5-6.4
	c3.2-12.4,13.8-17,23.4-22.3c6.4-3.5,12.7-7.1,18.4-12.4c8.8-8.5,16.6-7.1,24.4,2.8c6.7,8.5,6.4,7.8,17,5.3
	c23.4-5.3,44.6-15.2,66.5-23.7c5.3-2.1,11-2.8,16.3-1.4c3.5,0.7,6.7,2.5,6.7,6c0.4,13.1,11,17.7,20.2,22.7c5.3,2.8,11,5.3,15.2,9.6
	c2.5,2.8,6,5,9.9,4.6c9.2-1.1,10.3,8.8,16.6,11.3c6.4,2.5,13.8,1.1,19.5,7.1c5,5.3,8.1,11.3,6.7,18.8c-1.1,7.4-2.1,14.9-3.2,21.9
	c-0.7,4.2-2.1,8.5-5,11.3c-10.3,9.9-18.4,22.3-30.4,30.4c-8.8,6-16.3,13.5-24.1,20.9c-9.9,9.2-22.7,13.5-36.5,14.5
	c-16.3,1.1-28.3,9.6-38.2,21.9c-2.8,3.5-1.4,8.1-2.1,12c-1.8,11.3-0.4,23.4-9.2,32.9c-5.7,6.7-12,10.3-20.5,8.8
	c-7.4-1.1-14.9-1.4-22.3-2.5c-13.1-1.8-23.4-7.4-31.1-18.8c-8.8-13.1-13.8-28.3-23.4-41.1c-2.1-2.8-3.5-6.4-6-9.2
	C97.2,251.8,93,246.9,95.8,239.4L95.8,239.4z"/>
<path class="st6" d="M254.8,245.8c13.1,0,24.4-4.6,33.3-13.8c7.1-7.4,14.5-14.9,23.4-19.8c12-7.1,18.8-19.1,28.7-28.3
	c2.8-2.5,3.5-6.4,4.2-10.3c1.4-6.7,2.5-13.8,3.5-20.5c1.1-9.2-3.2-15.9-12-17c-12-1.4-21.2-8.5-30.8-14.2
	c-9.9-5.7-18.8-13.1-29-18.8c-6.4-3.5-12.4-7.8-15.6-15.2c-3.5-8.1-7.1-9.2-15.6-5.7c-6.4,2.5-12.4,6.4-19.1,8.1
	c-15.6,4.6-30.1,11.7-46,14.9c-15.2,3.2-14.9,4.6-24.4-7.1c-5.7-6.7-9.2-7.8-14.9-2.5c-6.4,6.4-14.2,10.3-21.9,14.5
	c-8.1,4.2-16.3,9.2-19.1,19.1c-0.7,2.8-3.5,5.7-6,7.4c-10.3,7.4-9.6,17.7-6.7,27.6c2.8,10.3,7.8,19.8,12.4,29.4
	c2.5,5.3,5,10.6,3.9,15.9c-1.4,10.3,1.1,20.2,0.4,30.4c-0.4,5.3,1.4,8.5,4.2,12.7c7.4,10.6,14.5,21.6,19.8,33.6
	c9.2,20.9,22.7,36.5,48.1,34.3c2.1-0.4,4.6,0.7,6.7,1.1c11.3,1.4,17.7-2.1,21.6-12.7c2.5-7.1,3.5-14.5,3.9-21.9
	C208,264.9,232.5,244,254.8,245.8L254.8,245.8z"/>
<path class="st9" d="M133.3,525.4c1.1-5.3,2.1-10.6,1.4-16.3c-1.8-12-4.6-23.7-14.9-31.5c-3.5-2.8-6.4-6.7-8.1-11
	c-2.5-6.4,0.7-11.7,7.4-11.3c11,0.4,20.5,3.2,27.3,13.5c10.3,15.2,12.4,32.6,14.2,49.9c0.7,6.7-9.2,19.1-15.6,21.2
	C138.3,542.1,132.6,535.4,133.3,525.4L133.3,525.4z"/>
<path class="st5" d="M118.8,462.4c0.4,6.4,3.9,9.9,7.4,12.7c14.2,12.4,15.2,28.7,14.9,45.7c0,3.9-3.2,9.6,1.8,11
	c5,1.4,7.4-4.6,9.9-8.1c1.1-1.4,1.8-3.5,1.4-5.3c-2.1-14.5-2.8-29.4-11-42.5C137.6,466.7,130.9,461.4,118.8,462.4L118.8,462.4z"/>
<path class="st10" d="M99.4,156.6c-1.4-12,4.2-21.9,18.8-26.2c5.3-1.4,8.1-6,12-9.2c7.8-6.4,13.1-6.4,20.9,0.4
	c2.8,2.5,5.3,5.3,8.5,7.4c4.2,2.5,8.8,1.8,13.1-1.1c3.5-2.5,6.4-6,10.3-7.1c20.9-5,39.3-16.6,59.1-23.7c6-2.1,8.8-0.4,12,5.3
	c5.7,9.9,13.8,17.3,25.1,20.5c6,1.8,11.3,4.2,15.2,9.2c1.8,2.5,4.6,5,7.4,6c12,3.2,18.8,13.1,27.3,20.9c7.1,6.4,7.8,15.2,2.1,22.7
	c-7.4,9.6-15.9,18.1-27.3,23.4c-2.5,1.1-5.3,1.8-8.1,2.1c-4.2,0.7-7.1-1.8-9.2-5c-1.8-3.2,0.7-5,2.8-7.1c0.7-0.7,1.4-1.4,1.8-2.1
	c1.1-2.5,2.8-5.3,1.1-7.8c-1.4-2.1-3.9-2.1-6.4-1.8c-3.5,0.4-6,2.5-6.4,6c-0.4,2.8,0.4,5.7,0.7,8.1c1.1,9.9-2.5,17-12,18.8
	c-26.5,5.3-42.5,24.8-59.8,42.8c-10.6,11.3-18.8,24.1-23.7,38.9c-4.2,13.1-14.9,14.5-23,3.5c-4.6-6-9.2-11.7-14.2-17
	c-7.8-8.8-15.2-17.7-15.2-30.4c0-1.1,0-2.1-0.7-2.8c-10.3-14.5-12-32.6-20.5-47.8C104.3,190.2,100.1,175,99.4,156.6L99.4,156.6z"/>
<path class="st8" d="M246.3,214.3c-6.4-3.2-12-1.1-14.9,2.8c-7.8,10.6-20.2,14.9-29,23.4c-7.8,7.1-16.3,12-25.5,16.6
	c-7.4,3.5-13.5,2.5-19.1-2.5c-8.8-7.8-15.9-18.1-18.1-29c-2.5-12.7-7.8-23.4-15.6-33.6c-6.4-8.1-12.4-18.1-11.7-29
	c1.1-14.5,24.1-27.3,37.5-20.5c8.5,3.9,15.6,4.6,24.1,0.7c2.5-1.1,5.7-1.1,8.1-2.1c14.2-7.4,30.4-10.3,43.2-20.9
	c7.1-6,15.6-5.7,23.4-1.8c7.4,3.9,14.2,8.8,21.9,12c15.9,6,25.5,18.1,32.9,32.2c2.1,4.2,1.4,7.8-4.2,6.7c-6-1.1-9.9-0.4-11.7,6.4
	c6.7,2.1,12.4,1.8,17.7-1.8c5-3.2,8.8-1.8,11.7,3.2c1.1,2.1,1.1,6,5.3,5.3c7.8-10.6,8.1-13.5,0-21.2c-6.7-6.4-12.7-13.8-21.9-16.6
	c-4.6-1.4-7.8-5-11-8.5c-2.1-2.5-4.2-5-7.8-6c-13.5-3.2-23.4-11.3-31.5-21.6c-3.2-3.9-6.7-5.3-11-3.2c-18.4,8.5-38.2,14.2-55.9,23.4
	c-19.8,11-18.8,12.7-35.4-1.4c-5.3-4.2-9.9-5-14.5,0c-5,5-10.3,9.2-17.3,11.3c-7.4,2.8-10.6,8.5-10.3,16.6
	c0.7,15.9,3.9,31.9,11.7,45.7c9.2,15.6,10.6,34.3,20.9,49.2c1.1,1.4,1.1,3.5,1.4,5.3c0.7,8.8,5,15.6,10.3,22.3
	c5.7,7.1,13.1,13.1,18.1,21.2c3.2,5.3,7.4,4.2,10.3-1.8c0.4-0.7,0.4-1.8,0.7-2.5c9.6-23,24.4-42.1,43.9-58
	C231.4,230.2,240.6,224.6,246.3,214.3L246.3,214.3z"/>
<path class="st5" d="M187.9,147.1c-2.5-1.8-4.2-0.7-6,0c-12.4,5.7-24.4,8.1-37.2,0c-4.2-2.8-8.8-1.1-13.1,1.8
	c-12,7.8-14.2,15.2-8.5,28.3c2.1,5.3,4.6,10.3,8.5,14.5c7.8,8.5,12,18.4,13.8,29.7c1.8,11,8.1,19.5,15.6,27.6
	c3.9,4.2,8.1,4.6,13.8,2.1c17-7.1,30.1-20.2,44.2-31.1c9.2-7.1,16.6-13.8,29-13.8c9.6,0,17.3-7.8,18.1-17.7
	c-5.7,6.7-11.3,12.4-19.5,9.2c-7.1-2.8-12.4-0.7-18.1,3.2c-7.1,5-14.5,9.9-21.9,14.9c-8.5,6-18.4,9.2-28,12.4
	c-7.1,2.5-15.2-1.1-15.6-7.4c-0.7-10.6-7.1-17.7-12.7-25.5c-3.9-5.3-6-12.4-8.8-18.8c-2.5-5.7-0.4-9.9,3.9-13.5
	c3.2-2.8,7.4-3.5,11.7-4.6C167.3,155.6,178.3,153.8,187.9,147.1L187.9,147.1z"/>
<path class="st8" d="M266.1,177.2c-17.7-6-33.3-5.7-46.7,7.4c-3.2,2.8-6.4,5.3-9.6,8.1c-6,5.3-13.5,8.5-21.2,10.3
	c-8.1,1.8-17.7-4.6-20.9-13.1c-2.8-7.8,0.4-14.2,9.2-19.1c10.3-5.7,20.9-9.9,32.6-12c6.7-1.4,13.8-3.2,18.4-9.2
	c1.1-1.4,1.8-3.5,0.7-5.3c-1.1-1.8-3.2-1.4-5-0.7c-22.7,7.1-44.6,15.9-67.6,21.6c-6.7,1.8-9.2,6.4-6.7,12.7
	c2.8,7.1,5,15.2,11.3,20.5c3.9,3.2,6.4,7.8,7.8,13.1c3.2,12.4,3.2,11.7,14.5,8.1c17.3-5.7,30.8-17.3,45.7-26.5
	c5.3-3.2,9.9-6.7,16.6-3.2c5.3,3.2,9.6,1.1,13.1-3.5C260.4,182.8,263.2,180.3,266.1,177.2L266.1,177.2z"/>
<path class="st5" d="M256.5,168.7c8.5,0.4,13.5-0.4,17.7-3.9c2.5-2.1,5.7-3.9,5-7.8c-0.7-4.2-3.9-6.4-7.8-6.7
	c-9.2-1.1-18.4-1.8-27.6-2.8c-2.8-0.4-6,0.4-7.4,2.8c-5.3,9.6-15.2,11.3-24.4,14.2c-11,3.2-21.9,7.1-31.9,13.1
	c-6.7,3.9-7.8,7.4-3.5,13.1c3.5,5,8.5,7.4,14.5,5c4.2-1.8,9.2-3.2,12.4-6.4c8.1-7.8,18.4-12.4,26.9-19.5c5.7-5,11.7-7.1,19.1-2.8
	C251.9,169,256.2,168.7,256.5,168.7L256.5,168.7z"/>
<path class="st5" d="M199.2,143.9c8.1-1.1,15.2-2.1,21.6-6c6.7-4.2,13.8-4.2,21.2-3.2c6,1.1,12,4.6,19.1,2.1
	c-1.8-6.7-7.8-7.8-12.4-10.6c-8.1-5-15.6-5-22.7,2.1c-5,5-11,8.1-18.4,8.8C204.1,137.2,200.6,138.6,199.2,143.9z"/>
<image style="display:none;overflow:visible;" width="512" height="512" xlink:href="../paper_textures/PaperTextures/PosterTexture512.png"  transform="matrix(0.7827 0 0 0.7787 0 0)">
</image>
<image style="display:none;overflow:visible;" width="512" height="512" xlink:href="../paper_textures/PaperTextures/PosterTexture512.png"  transform="matrix(0.7827 0 0 0.7787 0 398.6868)">
</image>
</svg>
